<svg version="1.1" id="Layer_1" xmlns="http://www.w3.org/2000/svg" xmlns:xlink="http://www.w3.org/1999/xlink" x="0px" y="0px"
	 viewBox="0 0 1075.186 1100.953" style="enable-background:new 0 0 1075.186 1100.953;" xml:space="preserve">
<g>
	<g>
		<path style="opacity:0.05;" d="M250.649,546.82c0,0,39.047-110.506,220.475-110.506c279.593,0,258.758,181.428,258.758,181.428
			L689.29,1037.22c0,0,43.566,8.811,52.489-44.725s77.33-624.588,77.33-624.588H227.237L250.649,546.82z"/>
		<path d="M669.604,1063.953H378.972c-72.464,0-95.959-43.714-98.371-67.28l-77.192-625.662l50.334-6.209l77.237,626.031
			c0.523,2.792,5.718,22.405,47.993,22.405h290.632c40.799,0,47.061-18.266,47.92-22.052l0.016-0.95l0.064,0.542l77.23-625.976
			l50.334,6.209l-77.191,625.656C765.568,1020.229,742.077,1063.953,669.604,1063.953z M717.517,991.587L717.517,991.587
			L717.517,991.587z M330.985,990.885l0.059,0.48C331.034,991.248,331.015,991.087,330.985,990.885z"/>
		<path d="M862.921,400.699H185.654c-31.643,0-57.387-25.744-57.387-57.387V234.868c0-31.643,25.744-57.387,57.387-57.387h677.267
			c31.643,0,57.387,25.744,57.387,57.387v108.445C920.308,374.955,894.564,400.699,862.921,400.699z M185.654,228.195
			c-3.617,0-6.673,3.056-6.673,6.673v108.445c0,3.617,3.056,6.673,6.673,6.673h677.267c3.617,0,6.673-3.056,6.673-6.673V234.868
			c0-3.617-3.056-6.673-6.673-6.673H185.654z"/>
		<path d="M842.825,201.35h-53.384c0-30.823-13.884-36.774-17.283-37.766c-18.895-3.342-383.053-67.764-466.753-84.091
			c-34.526-6.732-44.542-0.676-45.77,0.211c-0.003,0.018-0.005,0.038-0.008,0.056l0.249,1.314V201.35h-53.384V85.433
			c-1.388-12.344,1.818-30.004,15.371-43.482c18.746-18.645,49.419-23.501,93.761-14.853
			c85.036,16.587,462.686,83.364,466.49,84.036C803.068,114.779,842.825,138.346,842.825,201.35z M772.277,163.605
			c0.396,0.089,0.616,0.109,0.616,0.109C772.819,163.702,772.613,163.665,772.277,163.605z M259.615,80.007L259.615,80.007
			L259.615,80.007z"/>
		<path style="opacity:0.05;" d="M238.871,92.653c0,0,83.343,99.774,272.305,101.261c-172.307,0-292.76-1.487-292.76-1.487
			L238.871,92.653z"/>
	</g>
	<g>
		<path d="M496.875,940.707c11.374-20.024-4.027-52.858-11.765-70.82c-10.617-24.644-6.326-47.788,4.869-71.43
			c7.123-15.043,18.341-29.922,21.381-46.548c1.382-7.557-10.192-10.798-11.582-3.193c-3.044,16.645-14.714,31.642-21.651,46.846
			c-7.912,17.342-13.631,36.117-11.146,55.362c2.832,21.928,16.315,40.829,19.939,62.802c0.981,5.95,1.595,17.379-0.416,20.919
			C482.681,941.376,493.054,947.435,496.875,940.707L496.875,940.707z"/>
		<path d="M517.694,715.176c6.596-8.746,3.483-23.807,0.556-33.09c-5.042-15.993-14.347-30.546-24.29-43.888
			c-17.722-23.779-41.629-42.554-58.503-66.737c-8.318-11.922-18.437-28.944-2.63-38.639c14.233-8.729,26.694-8.378,42.445-2.638
			c14.589,5.316,28.072,12.889,42.173,19.286c7.519,3.411,17.817,8.279,26.4,5.884c4.154-1.159,7.497-3.858,8.863-8.036
			c0.463-1.417,0.4-2.902,0.59-4.353c0.757-5.784-2.2,4.631-0.354,1.004c9.877-19.409-24.881-31.328-33.306-40.577
			c-7.554-8.293-0.206-12.32,8.095-14.086c17.504-3.724,36.181,0.422,52.572,6.569c7.246,2.718,10.376-8.888,3.193-11.582
			c-19.554-7.333-51.698-14.885-71.115-2.181c-10.358,6.777-10.157,20.29-2.258,28.786c8.56,9.206,24.895,12.451,30.708,23.759
			c1.746,3.397,0.79,8.044,0.454,8.309c-3.347,2.638-15.173-2.703-20.029-4.944c-14.244-6.573-28.02-14.036-42.793-19.42
			c-16.633-6.061-29.451-6.754-45.301,0.639c-9.47,4.418-18.458,10.466-20.604,21.433c-3.717,18.994,13.075,39.441,24.643,52.336
			c19.592,21.838,41.017,41.153,56.737,66.275c7.069,11.297,22.074,38.305,13.382,49.828
			C502.667,715.286,513.091,721.278,517.694,715.176L517.694,715.176z"/>
		<path d="M504.42,883.757c6.963-22.213,14.521-44.373,23.438-65.88c5.396-13.014,14.015-25.987,14.749-40.424
			c0.626-12.308-5.098-22.907-12.726-32.164c-19.395-23.537-46.282-39.748-68.462-60.394c-21.855-20.343-44.948-48.348-23.529-77.28
			c4.603-6.217-5.817-12.214-10.371-6.062c-38.625,52.173,35.008,99.458,69.066,128.117c11.941,10.048,28.758,22.957,33.109,38.721
			c4.158,15.061-6.498,29.811-12.105,43.139c-9.471,22.512-17.448,45.733-24.752,69.034
			C490.521,887.957,502.112,891.12,504.42,883.757L504.42,883.757z"/>
		<path d="M461.239,588.013c-1.502,1.243,1.833-1.109,2.674-1.495c3.391-1.557,6.887-2.7,10.566-3.383
			c17.156-3.184,35.24,2.111,50.866,8.873c17.982,7.781,35.069,17.346,53.812,23.338c8.676,2.773,19.802,6.246,28.968,3.572
			c19.883-5.801,7.826-26.987-2.958-35.285c-4.771-3.671-9.975-6.907-15.356-9.606c-2.2-1.103-5.073-2.525-4.144-1.841
			c-2.594-1.911-5.117-4.652-6.916-7.298c-14.691-21.612,43.039-20.164,51.725-20.223c7.726-0.052,7.743-12.064,0-12.011
			c-17.199,0.116-56.317-2.094-65.274,18.443c-4.431,10.158,2.5,20.757,9.75,27.583c5.907,5.562,38.437,19.003,31.715,27.894
			c-4.42,5.846-25.958-3.292-30.482-4.93c-21.067-7.626-40.238-19.845-61.662-26.464c-18.638-5.759-45.305-9.297-61.78,4.339
			C446.786,584.453,455.325,592.909,461.239,588.013L461.239,588.013z"/>
	</g>
</g>
</svg>
